<svg width="27" height="27" viewBox="0 0 27 27" fill="none" xmlns="http://www.w3.org/2000/svg">
<path d="M17.25 13.125C17.775 13.125 18.2188 12.9438 18.5812 12.5813C18.9437 12.2188 19.125 11.775 19.125 11.25C19.125 10.725 18.9437 10.2812 18.5812 9.91875C18.2188 9.55625 17.775 9.375 17.25 9.375C16.725 9.375 16.2812 9.55625 15.9187 9.91875C15.5562 10.2812 15.375 10.725 15.375 11.25C15.375 11.775 15.5562 12.2188 15.9187 12.5813C16.2812 12.9438 16.725 13.125 17.25 13.125ZM9.75 13.125C10.275 13.125 10.7188 12.9438 11.0813 12.5813C11.4438 12.2188 11.625 11.775 11.625 11.25C11.625 10.725 11.4438 10.2812 11.0813 9.91875C10.7188 9.55625 10.275 9.375 9.75 9.375C9.225 9.375 8.78125 9.55625 8.41875 9.91875C8.05625 10.2812 7.875 10.725 7.875 11.25C7.875 11.775 8.05625 12.2188 8.41875 12.5813C8.78125 12.9438 9.225 13.125 9.75 13.125ZM13.5 21C15 21 16.3563 20.5875 17.5688 19.7625C18.7812 18.9375 19.675 17.85 20.25 16.5H6.75C7.325 17.85 8.21875 18.9375 9.43125 19.7625C10.6437 20.5875 12 21 13.5 21ZM13.5 27C11.625 27 9.86875 26.6437 8.23125 25.9312C6.59375 25.2188 5.16875 24.2563 3.95625 23.0438C2.74375 21.8313 1.78125 20.4062 1.06875 18.7687C0.35625 17.1312 0 15.375 0 13.5C0 11.625 0.35625 9.86875 1.06875 8.23125C1.78125 6.59375 2.74375 5.16875 3.95625 3.95625C5.16875 2.74375 6.59375 1.78125 8.23125 1.06875C9.86875 0.35625 11.625 0 13.5 0C15.375 0 17.1312 0.35625 18.7687 1.06875C20.4062 1.78125 21.8313 2.74375 23.0438 3.95625C24.2563 5.16875 25.2188 6.59375 25.9312 8.23125C26.6437 9.86875 27 11.625 27 13.5C27 15.375 26.6437 17.1312 25.9312 18.7687C25.2188 20.4062 24.2563 21.8313 23.0438 23.0438C21.8313 24.2563 20.4062 25.2188 18.7687 25.9312C17.1312 26.6437 15.375 27 13.5 27ZM14.1 8.25C14.525 8.25 15.0062 8.16875 15.5437 8.00625C16.0812 7.84375 16.35 7.475 16.35 6.9C16.35 6.6 16.25 6.3375 16.05 6.1125C15.85 5.8875 15.6 5.775 15.3 5.775C15.1 5.775 14.9062 5.8125 14.7188 5.8875C14.5312 5.9625 14.325 6 14.1 6C13.575 6 13.1313 5.81875 12.7688 5.45625C12.4062 5.09375 12.225 4.65 12.225 4.125C12.225 3.85 12.2688 3.61875 12.3562 3.43125C12.4437 3.24375 12.575 3.1125 12.75 3.0375C12.275 3.0875 11.8125 3.15 11.3625 3.225C10.9125 3.3 10.475 3.425 10.05 3.6C10.025 3.675 10.0062 3.7625 9.99375 3.8625C9.98125 3.9625 9.975 4.05 9.975 4.125C9.975 5.25 10.3813 6.21875 11.1938 7.03125C12.0063 7.84375 12.975 8.25 14.1 8.25Z" fill="#006689"/>
</svg>
