<svg preserveAspectRatio="none" width="100%" height="100%" overflow="visible" style="display: block;" viewBox="0 0 31.5 30" fill="none" xmlns="http://www.w3.org/2000/svg">
<path id="Icon" d="M9 27.0375V13.5H11.4C11.575 13.5 11.75 13.5187 11.925 13.5562C12.1 13.5937 12.275 13.6375 12.45 13.6875L22.8375 17.55C23.1875 17.675 23.4687 17.9 23.6812 18.225C23.8937 18.55 24 18.8875 24 19.2375C24 19.7625 23.8187 20.1875 23.4562 20.5125C23.0937 20.8375 22.675 21 22.2 21H18.2625C18.1375 21 18.0438 20.9938 17.9813 20.9813C17.9188 20.9688 17.8375 20.9375 17.7375 20.8875L15.3375 19.95L14.85 21.4125L17.7375 22.425C17.7875 22.45 17.8625 22.4688 17.9625 22.4813C18.0625 22.4938 18.15 22.5 18.225 22.5H28.5C29.3 22.5 30 22.7875 30.6 23.3625C31.2 23.9375 31.5 24.65 31.5 25.5L19.5375 30L9 27.0375V27.0375M0 30V13.5H6V30H0V30M22.5 16.5L16.275 10.425C15.5 9.675 14.8437 8.84375 14.3062 7.93125C13.7687 7.01875 13.5 6.025 13.5 4.95C13.5 3.575 13.9813 2.40625 14.9438 1.44375C15.9063 0.48125 17.075 0 18.45 0C19.25 0 20 0.16875 20.7 0.50625C21.4 0.84375 22 1.3 22.5 1.875C23 1.3 23.6 0.84375 24.3 0.50625C25 0.16875 25.75 0 26.55 0C27.925 0 29.0937 0.48125 30.0562 1.44375C31.0187 2.40625 31.5 3.575 31.5 4.95C31.5 6.025 31.2375 7.01875 30.7125 7.93125C30.1875 8.84375 29.5375 9.675 28.7625 10.425L22.5 16.5V16.5" fill="var(--fill-0, #002204)"/>
</svg>
