<svg preserveAspectRatio="none" width="100%" height="100%" overflow="visible" style="display: block;" viewBox="0 0 20 25" fill="none" xmlns="http://www.w3.org/2000/svg">
<g id="Container">
<path id="Icon" d="M10 25C7.14583 25 4.76562 24.0208 2.85938 22.0625C0.953125 20.1042 0 17.6667 0 14.75C0 12.6667 0.828125 10.401 2.48438 7.95312C4.14062 5.50521 6.64583 2.85417 10 0C13.3542 2.85417 15.8594 5.50521 17.5156 7.95312C19.1719 10.401 20 12.6667 20 14.75C20 17.6667 19.0469 20.1042 17.1406 22.0625C15.2344 24.0208 12.8542 25 10 25V25M6.25 20H13.75V17.5H6.25V20V20M8.75 16.25H11.25V13.75H13.75V11.25H11.25V8.75H8.75V11.25H6.25V13.75H8.75V16.25V16.25" fill="var(--fill-0, #BA1A1A)"/>
</g>
</svg>
