<svg preserveAspectRatio="none" width="100%" height="100%" overflow="visible" style="display: block;" viewBox="0 0 30 13.75" fill="none" xmlns="http://www.w3.org/2000/svg">
<g id="Container">
<path id="Icon" d="M6.875 13.75C4.95833 13.75 3.33333 13.0833 2 11.75C0.666667 10.4167 0 8.79167 0 6.875C0 4.95833 0.666667 3.33333 2 2C3.33333 0.666667 4.95833 0 6.875 0C7.64583 0 8.38542 0.135417 9.09375 0.40625C9.80208 0.677083 10.4375 1.0625 11 1.5625L13.125 3.5L11.25 5.1875L9.3125 3.4375C8.97917 3.14583 8.60417 2.91667 8.1875 2.75C7.77083 2.58333 7.33333 2.5 6.875 2.5C5.66667 2.5 4.63542 2.92708 3.78125 3.78125C2.92708 4.63542 2.5 5.66667 2.5 6.875C2.5 8.08333 2.92708 9.11458 3.78125 9.96875C4.63542 10.8229 5.66667 11.25 6.875 11.25C7.33333 11.25 7.77083 11.1667 8.1875 11C8.60417 10.8333 8.97917 10.6042 9.3125 10.3125L19 1.5625C19.5625 1.0625 20.1979 0.677083 20.9062 0.40625C21.6146 0.135417 22.3542 0 23.125 0C25.0417 0 26.6667 0.666667 28 2C29.3333 3.33333 30 4.95833 30 6.875C30 8.79167 29.3333 10.4167 28 11.75C26.6667 13.0833 25.0417 13.75 23.125 13.75C22.3542 13.75 21.6146 13.6146 20.9062 13.3438C20.1979 13.0729 19.5625 12.6875 19 12.1875L16.875 10.25L18.75 8.5625L20.6875 10.3125C21.0208 10.6042 21.3958 10.8333 21.8125 11C22.2292 11.1667 22.6667 11.25 23.125 11.25C24.3333 11.25 25.3646 10.8229 26.2188 9.96875C27.0729 9.11458 27.5 8.08333 27.5 6.875C27.5 5.66667 27.0729 4.63542 26.2188 3.78125C25.3646 2.92708 24.3333 2.5 23.125 2.5C22.6667 2.5 22.2292 2.58333 21.8125 2.75C21.3958 2.91667 21.0208 3.14583 20.6875 3.4375L11 12.1875C10.4375 12.6875 9.80208 13.0729 9.09375 13.3438C8.38542 13.6146 7.64583 13.75 6.875 13.75V13.75" fill="var(--fill-0, #006689)"/>
</g>
</svg>
