<svg width="30" height="21" viewBox="0 0 30 21" fill="none" xmlns="http://www.w3.org/2000/svg">
<path d="M0 21V12C0 11.325 0.1375 10.7125 0.4125 10.1625C0.6875 9.6125 1.05 9.125 1.5 8.7V4.5C1.5 3.25 1.9375 2.1875 2.8125 1.3125C3.6875 0.4375 4.75 0 6 0H12C12.575 0 13.1125 0.10625 13.6125 0.31875C14.1125 0.53125 14.575 0.825 15 1.2C15.425 0.825 15.8875 0.53125 16.3875 0.31875C16.8875 0.10625 17.425 0 18 0H24C25.25 0 26.3125 0.4375 27.1875 1.3125C28.0625 2.1875 28.5 3.25 28.5 4.5V8.7C28.95 9.125 29.3125 9.6125 29.5875 10.1625C29.8625 10.7125 30 11.325 30 12V21H27V18H3V21H0ZM16.5 7.5H25.5V4.5C25.5 4.075 25.3563 3.71875 25.0688 3.43125C24.7812 3.14375 24.425 3 24 3H18C17.575 3 17.2188 3.14375 16.9312 3.43125C16.6437 3.71875 16.5 4.075 16.5 4.5V7.5ZM4.5 7.5H13.5V4.5C13.5 4.075 13.3563 3.71875 13.0688 3.43125C12.7812 3.14375 12.425 3 12 3H6C5.575 3 5.21875 3.14375 4.93125 3.43125C4.64375 3.71875 4.5 4.075 4.5 4.5V7.5Z" fill="#006E1C"/>
</svg>
