<svg preserveAspectRatio="none" width="100%" height="100%" overflow="visible" style="display: block;" viewBox="0 0 40 40" fill="none" xmlns="http://www.w3.org/2000/svg">
<g id="Container">
<path id="Icon" d="M12 18C12.5667 18 13.0417 17.8083 13.425 17.425C13.8083 17.0417 14 16.5667 14 16C14 15.4333 13.8083 14.9583 13.425 14.575C13.0417 14.1917 12.5667 14 12 14C11.4333 14 10.9583 14.1917 10.575 14.575C10.1917 14.9583 10 15.4333 10 16C10 16.5667 10.1917 17.0417 10.575 17.425C10.9583 17.8083 11.4333 18 12 18V18M20 18C20.5667 18 21.0417 17.8083 21.425 17.425C21.8083 17.0417 22 16.5667 22 16C22 15.4333 21.8083 14.9583 21.425 14.575C21.0417 14.1917 20.5667 14 20 14C19.4333 14 18.9583 14.1917 18.575 14.575C18.1917 14.9583 18 15.4333 18 16C18 16.5667 18.1917 17.0417 18.575 17.425C18.9583 17.8083 19.4333 18 20 18V18M28 18C28.5667 18 29.0417 17.8083 29.425 17.425C29.8083 17.0417 30 16.5667 30 16C30 15.4333 29.8083 14.9583 29.425 14.575C29.0417 14.1917 28.5667 14 28 14C27.4333 14 26.9583 14.1917 26.575 14.575C26.1917 14.9583 26 15.4333 26 16C26 16.5667 26.1917 17.0417 26.575 17.425C26.9583 17.8083 27.4333 18 28 18V18M0 40V4C0 2.9 0.391667 1.95833 1.175 1.175C1.95833 0.391667 2.9 0 4 0H36C37.1 0 38.0417 0.391667 38.825 1.175C39.6083 1.95833 40 2.9 40 4V28C40 29.1 39.6083 30.0417 38.825 30.825C38.0417 31.6083 37.1 32 36 32H8L0 40V40M6.3 28H36V28V28V4V4V4H4V4V4V30.25L6.3 28V28M4 28V28V4V4V4V4V4V4V28V28V28V28V28" fill="var(--fill-0, #191C1D)"/>
</g>
</svg>
